<?xml version="1.0" encoding="UTF-8" standalone="no"?>
<!DOCTYPE svg PUBLIC "-//W3C//DTD SVG 1.1//EN"
 "http://www.w3.org/Graphics/SVG/1.1/DTD/svg11.dtd">
<!-- Generated by graphviz version 2.43.0 (0)
 -->
<!-- Title: Root Pages: 1 -->
<svg width="389pt" height="311pt"
 viewBox="0.00 0.00 389.00 310.60" xmlns="http://www.w3.org/2000/svg" xmlns:xlink="http://www.w3.org/1999/xlink">
<g id="graph0" class="graph" transform="scale(1 1) rotate(0) translate(4 306.6)">
<title>Root</title>
<polygon fill="white" stroke="transparent" points="-4,4 -4,-306.6 385,-306.6 385,4 -4,4"/>
<g id="clust1" class="cluster">
<title>cluster0</title>
<path fill="lightgrey" stroke="darkgray" d="M20,-8C20,-8 361,-8 361,-8 367,-8 373,-14 373,-20 373,-20 373,-282.6 373,-282.6 373,-288.6 367,-294.6 361,-294.6 361,-294.6 20,-294.6 20,-294.6 14,-294.6 8,-288.6 8,-282.6 8,-282.6 8,-20 8,-20 8,-14 14,-8 20,-8"/>
<text text-anchor="middle" x="190.5" y="-279.4" font-family="Arial" font-size="14.00">L1Cache</text>
</g>
<g id="clust2" class="cluster">
<title>cluster1</title>
<path fill="lightgrey" stroke="darkgray" d="M28,-16C28,-16 270,-16 270,-16 276,-16 282,-22 282,-28 282,-28 282,-213.8 282,-213.8 282,-219.8 276,-225.8 270,-225.8 270,-225.8 28,-225.8 28,-225.8 22,-225.8 16,-219.8 16,-213.8 16,-213.8 16,-28 16,-28 16,-22 22,-16 28,-16"/>
<text text-anchor="middle" x="149" y="-210.6" font-family="Arial" font-size="14.00">CPUInterface</text>
</g>
<g id="clust3" class="cluster">
<title>cluster2</title>
<path fill="lightgrey" stroke="darkgray" d="M302,-176C302,-176 353,-176 353,-176 359,-176 365,-182 365,-188 365,-188 365,-213.8 365,-213.8 365,-219.8 359,-225.8 353,-225.8 353,-225.8 302,-225.8 302,-225.8 296,-225.8 290,-219.8 290,-213.8 290,-213.8 290,-188 290,-188 290,-182 296,-176 302,-176"/>
<text text-anchor="middle" x="327.5" y="-210.6" font-family="Arial" font-size="14.00">Controller</text>
</g>
<!-- node0 -->
<g id="node0" class="node">
<title>node0</title>
<ellipse fill="black" stroke="black" cx="271" cy="-258.2" rx="5.4" ry="5.4"/>
<text text-anchor="start" x="242.6" y="-267.2" font-family="Times,serif" font-style="italic" font-size="8.00">Initial</text>
</g>
<!-- node1 -->
<g id="node1" class="node">
<title>node1</title>
<ellipse fill="black" stroke="black" cx="261" cy="-189.4" rx="5.4" ry="5.4"/>
<text text-anchor="start" x="232.6" y="-198.4" font-family="Times,serif" font-style="italic" font-size="8.00">Initial</text>
</g>
<!-- node0&#45;&gt;node1 -->
<g id="edge1" class="edge">
<title>node0&#45;&gt;node1</title>
<path fill="none" stroke="black" d="M270.34,-252.82C269.76,-248.9 268.83,-242.7 267.78,-235.7"/>
<polygon fill="black" stroke="black" points="271.24,-235.17 266.3,-225.8 264.32,-236.2 271.24,-235.17"/>
</g>
<!-- node4 -->
<g id="node4" class="node">
<title>node4</title>
<ellipse fill="black" stroke="black" cx="303" cy="-189.4" rx="5.4" ry="5.4"/>
<text text-anchor="start" x="274.6" y="-198.4" font-family="Times,serif" font-style="italic" font-size="8.00">Initial</text>
</g>
<!-- node0&#45;&gt;node4 -->
<g id="edge2" class="edge">
<title>node0&#45;&gt;node4</title>
<path fill="none" stroke="black" d="M273.1,-252.82C275.75,-247.28 280.58,-237.2 285.6,-226.73"/>
<polygon fill="black" stroke="black" points="288.84,-228.06 290,-217.53 282.53,-225.04 288.84,-228.06"/>
</g>
<!-- node2 -->
<g id="node2" class="node">
<title>node2</title>
<path fill="#e0e0e0" stroke="#000000" d="M262,-147C262,-147 232,-147 232,-147 226,-147 220,-141 220,-135 220,-135 220,-123 220,-123 220,-117 226,-111 232,-111 232,-111 262,-111 262,-111 268,-111 274,-117 274,-123 274,-123 274,-135 274,-135 274,-141 268,-147 262,-147"/>
<text text-anchor="middle" x="247" y="-125.3" font-family="Arial" font-size="14.00">Idle</text>
</g>
<!-- node1&#45;&gt;node2 -->
<g id="edge3" class="edge">
<title>node1&#45;&gt;node2</title>
<path fill="none" stroke="black" d="M259.9,-183.82C258.5,-177.97 255.96,-167.38 253.5,-157.13"/>
<polygon fill="black" stroke="black" points="256.85,-156.09 251.12,-147.18 250.05,-157.72 256.85,-156.09"/>
</g>
<!-- node3 -->
<g id="node3" class="node">
<title>node3</title>
<path fill="#e0e0e0" stroke="#000000" d="M245.5,-60C245.5,-60 52.5,-60 52.5,-60 46.5,-60 40.5,-54 40.5,-48 40.5,-48 40.5,-36 40.5,-36 40.5,-30 46.5,-24 52.5,-24 52.5,-24 245.5,-24 245.5,-24 251.5,-24 257.5,-30 257.5,-36 257.5,-36 257.5,-48 257.5,-48 257.5,-54 251.5,-60 245.5,-60"/>
<text text-anchor="middle" x="149" y="-38.3" font-family="Arial" font-size="14.00">MemoryAccessRequestReceived</text>
</g>
<!-- node2&#45;&gt;node3 -->
<g id="edge4" class="edge">
<title>node2&#45;&gt;node3</title>
<path fill="none" stroke="black" d="M219.69,-127.49C169.41,-125.91 65.29,-119.44 43,-93 32.83,-80.94 38.54,-71.6 51.45,-64.44"/>
<polygon fill="black" stroke="black" points="53.29,-67.44 60.87,-60.04 50.33,-61.1 53.29,-67.44"/>
<text text-anchor="start" x="43" y="-82.8" font-family="Courier,monospace" font-size="14.00"> </text>
<text text-anchor="start" x="52" y="-82.8" font-family="Courier,monospace" font-weight="bold" font-size="10.00">MemoryAccess</text>
<text text-anchor="start" x="125" y="-82.8" font-family="Courier,monospace" font-style="italic" font-size="10.00">/doCheckPageLoaded();</text>
<text text-anchor="start" x="252" y="-82.8" font-family="Courier,monospace" font-size="10.00"> </text>
<text text-anchor="start" x="259" y="-82.8" font-family="Courier,monospace" font-size="14.00"> </text>
</g>
<!-- node3&#45;&gt;node2 -->
<g id="edge5" class="edge">
<title>node3&#45;&gt;node2</title>
<path fill="none" stroke="black" d="M247.81,-60.14C255.57,-64.81 262.52,-70.67 268,-78 273.33,-85.12 271.87,-93.79 267.9,-101.9"/>
<polygon fill="black" stroke="black" points="264.75,-100.34 262.58,-110.71 270.75,-103.96 264.75,-100.34"/>
</g>
</g>
</svg>
