<?xml version="1.0" encoding="UTF-8" standalone="no"?>
<!DOCTYPE svg PUBLIC "-//W3C//DTD SVG 1.1//EN"
 "http://www.w3.org/Graphics/SVG/1.1/DTD/svg11.dtd">
<!-- Generated by graphviz version 2.43.0 (0)
 -->
<!-- Title: Root Pages: 1 -->
<svg width="1232pt" height="337pt"
 viewBox="0.00 0.00 1232.00 337.20" xmlns="http://www.w3.org/2000/svg" xmlns:xlink="http://www.w3.org/1999/xlink">
<g id="graph0" class="graph" transform="scale(1 1) rotate(0) translate(4 333.2)">
<title>Root</title>
<polygon fill="white" stroke="transparent" points="-4,4 -4,-333.2 1228,-333.2 1228,4 -4,4"/>
<g id="clust1" class="cluster">
<title>cluster0</title>
<path fill="lightgrey" stroke="darkgray" d="M20,-176C20,-176 451,-176 451,-176 457,-176 463,-182 463,-188 463,-188 463,-309.2 463,-309.2 463,-315.2 457,-321.2 451,-321.2 451,-321.2 20,-321.2 20,-321.2 14,-321.2 8,-315.2 8,-309.2 8,-309.2 8,-188 8,-188 8,-182 14,-176 20,-176"/>
<text text-anchor="middle" x="235.5" y="-306" font-family="Arial" font-size="14.00">CPU</text>
</g>
<g id="clust2" class="cluster">
<title>cluster1</title>
<path fill="lightgrey" stroke="darkgray" d="M483,-8C483,-8 1069,-8 1069,-8 1075,-8 1081,-14 1081,-20 1081,-20 1081,-309.2 1081,-309.2 1081,-315.2 1075,-321.2 1069,-321.2 1069,-321.2 483,-321.2 483,-321.2 477,-321.2 471,-315.2 471,-309.2 471,-309.2 471,-20 471,-20 471,-14 477,-8 483,-8"/>
<text text-anchor="middle" x="776" y="-306" font-family="Arial" font-size="14.00">L1Cache</text>
</g>
<g id="clust3" class="cluster">
<title>cluster2</title>
<path fill="lightgrey" stroke="darkgray" d="M491,-16C491,-16 733,-16 733,-16 739,-16 745,-22 745,-28 745,-28 745,-226.4 745,-226.4 745,-232.4 739,-238.4 733,-238.4 733,-238.4 491,-238.4 491,-238.4 485,-238.4 479,-232.4 479,-226.4 479,-226.4 479,-28 479,-28 479,-22 485,-16 491,-16"/>
<text text-anchor="middle" x="612" y="-223.2" font-family="Arial" font-size="14.00">CPUInterface</text>
</g>
<g id="clust4" class="cluster">
<title>cluster3</title>
<path fill="lightgrey" stroke="darkgray" d="M765,-16C765,-16 1061,-16 1061,-16 1067,-16 1073,-22 1073,-28 1073,-28 1073,-226.4 1073,-226.4 1073,-232.4 1067,-238.4 1061,-238.4 1061,-238.4 765,-238.4 765,-238.4 759,-238.4 753,-232.4 753,-226.4 753,-226.4 753,-28 753,-28 753,-22 759,-16 765,-16"/>
<text text-anchor="middle" x="913" y="-223.2" font-family="Arial" font-size="14.00">Controller</text>
</g>
<g id="clust5" class="cluster">
<title>cluster4</title>
<path fill="lightgrey" stroke="darkgray" d="M1101,-176C1101,-176 1204,-176 1204,-176 1210,-176 1216,-182 1216,-188 1216,-188 1216,-309.2 1216,-309.2 1216,-315.2 1210,-321.2 1204,-321.2 1204,-321.2 1101,-321.2 1101,-321.2 1095,-321.2 1089,-315.2 1089,-309.2 1089,-309.2 1089,-188 1089,-188 1089,-182 1095,-176 1101,-176"/>
<text text-anchor="middle" x="1152.5" y="-306" font-family="Arial" font-size="14.00">L1CacheObserver</text>
</g>
<!-- node0 -->
<g id="node0" class="node">
<title>node0</title>
<ellipse fill="black" stroke="black" cx="43" cy="-284.8" rx="5.4" ry="5.4"/>
<text text-anchor="start" x="14.6" y="-293.8" font-family="Times,serif" font-style="italic" font-size="8.00">Initial</text>
</g>
<!-- node1 -->
<g id="node1" class="node">
<title>node1</title>
<path fill="#e0e0e0" stroke="#000000" d="M58,-220C58,-220 28,-220 28,-220 22,-220 16,-214 16,-208 16,-208 16,-196 16,-196 16,-190 22,-184 28,-184 28,-184 58,-184 58,-184 64,-184 70,-190 70,-196 70,-196 70,-208 70,-208 70,-214 64,-220 58,-220"/>
<text text-anchor="middle" x="43" y="-198.3" font-family="Arial" font-size="14.00">Step</text>
</g>
<!-- node0&#45;&gt;node1 -->
<g id="edge1" class="edge">
<title>node0&#45;&gt;node1</title>
<path fill="none" stroke="black" d="M43,-278.99C43,-269.55 43,-247.97 43,-230.21"/>
<polygon fill="black" stroke="black" points="46.5,-230.05 43,-220.05 39.5,-230.05 46.5,-230.05"/>
<text text-anchor="start" x="43" y="-251.2" font-family="Courier,monospace" font-size="14.00"> </text>
<text text-anchor="start" x="52" y="-251.2" font-family="Courier,monospace" font-style="italic" font-size="10.00">/doTick();</text>
<text text-anchor="start" x="113" y="-251.2" font-family="Courier,monospace" font-size="10.00"> </text>
<text text-anchor="start" x="120" y="-251.2" font-family="Courier,monospace" font-size="14.00"> </text>
</g>
<!-- node1&#45;&gt;node1 -->
<g id="edge2" class="edge">
<title>node1&#45;&gt;node1</title>
<path fill="none" stroke="black" d="M70.24,-208.74C80.02,-208.89 88,-206.64 88,-202 88,-199.17 85.04,-197.23 80.51,-196.18"/>
<polygon fill="black" stroke="black" points="80.51,-192.67 70.24,-195.26 79.89,-199.64 80.51,-192.67"/>
<text text-anchor="start" x="88" y="-199.3" font-family="Courier,monospace" font-size="14.00"> </text>
<text text-anchor="start" x="97" y="-199.3" font-family="Courier,monospace" font-weight="bold" font-size="10.00">ClockTick</text>
<text text-anchor="start" x="152" y="-199.3" font-family="Courier,monospace" font-style="italic" font-size="10.00">/doAccessMemory();</text>
<text text-anchor="start" x="261" y="-199.3" font-family="Courier,monospace" font-size="10.00"> </text>
<text text-anchor="start" x="268" y="-199.3" font-family="Courier,monospace" font-style="italic" font-size="10.00">/doIncrementIP();</text>
<text text-anchor="start" x="371" y="-199.3" font-family="Courier,monospace" font-size="10.00"> </text>
<text text-anchor="start" x="378" y="-199.3" font-family="Courier,monospace" font-style="italic" font-size="10.00">/doTick();</text>
<text text-anchor="start" x="439" y="-199.3" font-family="Courier,monospace" font-size="10.00"> </text>
<text text-anchor="start" x="446" y="-199.3" font-family="Courier,monospace" font-size="14.00"> </text>
</g>
<!-- node2 -->
<g id="node2" class="node">
<title>node2</title>
<ellipse fill="black" stroke="black" cx="739" cy="-284.8" rx="5.4" ry="5.4"/>
<text text-anchor="start" x="710.6" y="-293.8" font-family="Times,serif" font-style="italic" font-size="8.00">Initial</text>
</g>
<!-- node3 -->
<g id="node3" class="node">
<title>node3</title>
<ellipse fill="black" stroke="black" cx="726" cy="-202" rx="5.4" ry="5.4"/>
<text text-anchor="start" x="697.6" y="-211" font-family="Times,serif" font-style="italic" font-size="8.00">Initial</text>
</g>
<!-- node2&#45;&gt;node3 -->
<g id="edge3" class="edge">
<title>node2&#45;&gt;node3</title>
<path fill="none" stroke="black" d="M738.23,-278.99C737.21,-272.65 735.31,-260.86 733.31,-248.42"/>
<polygon fill="black" stroke="black" points="736.74,-247.71 731.69,-238.4 729.83,-248.83 736.74,-247.71"/>
</g>
<!-- node6 -->
<g id="node6" class="node">
<title>node6</title>
<ellipse fill="black" stroke="black" cx="777" cy="-202" rx="5.4" ry="5.4"/>
<text text-anchor="start" x="748.6" y="-211" font-family="Times,serif" font-style="italic" font-size="8.00">Initial</text>
</g>
<!-- node2&#45;&gt;node6 -->
<g id="edge4" class="edge">
<title>node2&#45;&gt;node6</title>
<path fill="none" stroke="black" d="M741.04,-279.46C744.03,-273.1 749.92,-260.58 756.08,-247.48"/>
<polygon fill="black" stroke="black" points="759.27,-248.93 760.35,-238.4 752.93,-245.95 759.27,-248.93"/>
</g>
<!-- node4 -->
<g id="node4" class="node">
<title>node4</title>
<path fill="#e0e0e0" stroke="#000000" d="M725,-147C725,-147 695,-147 695,-147 689,-147 683,-141 683,-135 683,-135 683,-123 683,-123 683,-117 689,-111 695,-111 695,-111 725,-111 725,-111 731,-111 737,-117 737,-123 737,-123 737,-135 737,-135 737,-141 731,-147 725,-147"/>
<text text-anchor="middle" x="710" y="-125.3" font-family="Arial" font-size="14.00">Idle</text>
</g>
<!-- node3&#45;&gt;node4 -->
<g id="edge5" class="edge">
<title>node3&#45;&gt;node4</title>
<path fill="none" stroke="black" d="M724.95,-196.34C723.17,-188.45 719.44,-171.87 716.14,-157.27"/>
<polygon fill="black" stroke="black" points="719.47,-156.12 713.86,-147.13 712.64,-157.66 719.47,-156.12"/>
</g>
<!-- node5 -->
<g id="node5" class="node">
<title>node5</title>
<path fill="#e0e0e0" stroke="#000000" d="M708.5,-60C708.5,-60 515.5,-60 515.5,-60 509.5,-60 503.5,-54 503.5,-48 503.5,-48 503.5,-36 503.5,-36 503.5,-30 509.5,-24 515.5,-24 515.5,-24 708.5,-24 708.5,-24 714.5,-24 720.5,-30 720.5,-36 720.5,-36 720.5,-48 720.5,-48 720.5,-54 714.5,-60 708.5,-60"/>
<text text-anchor="middle" x="612" y="-38.3" font-family="Arial" font-size="14.00">MemoryAccessRequestReceived</text>
</g>
<!-- node4&#45;&gt;node5 -->
<g id="edge6" class="edge">
<title>node4&#45;&gt;node5</title>
<path fill="none" stroke="black" d="M682.69,-127.49C632.41,-125.91 528.29,-119.44 506,-93 495.83,-80.94 501.54,-71.6 514.45,-64.44"/>
<polygon fill="black" stroke="black" points="516.29,-67.44 523.87,-60.04 513.33,-61.1 516.29,-67.44"/>
<text text-anchor="start" x="506" y="-82.8" font-family="Courier,monospace" font-size="14.00"> </text>
<text text-anchor="start" x="515" y="-82.8" font-family="Courier,monospace" font-weight="bold" font-size="10.00">MemoryAccess</text>
<text text-anchor="start" x="588" y="-82.8" font-family="Courier,monospace" font-style="italic" font-size="10.00">/doCheckPageLoaded();</text>
<text text-anchor="start" x="715" y="-82.8" font-family="Courier,monospace" font-size="10.00"> </text>
<text text-anchor="start" x="722" y="-82.8" font-family="Courier,monospace" font-size="14.00"> </text>
</g>
<!-- node5&#45;&gt;node4 -->
<g id="edge7" class="edge">
<title>node5&#45;&gt;node4</title>
<path fill="none" stroke="black" d="M710.81,-60.14C718.57,-64.81 725.52,-70.67 731,-78 736.33,-85.12 734.87,-93.79 730.9,-101.9"/>
<polygon fill="black" stroke="black" points="727.75,-100.34 725.58,-110.71 733.75,-103.96 727.75,-100.34"/>
</g>
<!-- node7 -->
<g id="node7" class="node">
<title>node7</title>
<path fill="#e0e0e0" stroke="#000000" d="M803,-147C803,-147 773,-147 773,-147 767,-147 761,-141 761,-135 761,-135 761,-123 761,-123 761,-117 767,-111 773,-111 773,-111 803,-111 803,-111 809,-111 815,-117 815,-123 815,-123 815,-135 815,-135 815,-141 809,-147 803,-147"/>
<text text-anchor="middle" x="788" y="-125.3" font-family="Arial" font-size="14.00">Idle</text>
</g>
<!-- node6&#45;&gt;node7 -->
<g id="edge8" class="edge">
<title>node6&#45;&gt;node7</title>
<path fill="none" stroke="black" d="M777.72,-196.34C778.94,-188.45 781.51,-171.87 783.78,-157.27"/>
<polygon fill="black" stroke="black" points="787.27,-157.55 785.35,-147.13 780.36,-156.48 787.27,-157.55"/>
</g>
<!-- node8 -->
<g id="node8" class="node">
<title>node8</title>
<path fill="#e0e0e0" stroke="#000000" d="M969.5,-60C969.5,-60 856.5,-60 856.5,-60 850.5,-60 844.5,-54 844.5,-48 844.5,-48 844.5,-36 844.5,-36 844.5,-30 850.5,-24 856.5,-24 856.5,-24 969.5,-24 969.5,-24 975.5,-24 981.5,-30 981.5,-36 981.5,-36 981.5,-48 981.5,-48 981.5,-54 975.5,-60 969.5,-60"/>
<text text-anchor="middle" x="913" y="-38.3" font-family="Arial" font-size="14.00">CheckPageInCache</text>
</g>
<!-- node7&#45;&gt;node8 -->
<g id="edge9" class="edge">
<title>node7&#45;&gt;node8</title>
<path fill="none" stroke="black" d="M779.2,-110.64C775.26,-100.2 772.92,-87.19 780,-78 787.43,-68.36 810.04,-60.85 834.56,-55.29"/>
<polygon fill="black" stroke="black" points="835.35,-58.7 844.4,-53.19 833.89,-51.86 835.35,-58.7"/>
<text text-anchor="start" x="780" y="-82.8" font-family="Courier,monospace" font-size="14.00"> </text>
<text text-anchor="start" x="789" y="-82.8" font-family="Courier,monospace" font-weight="bold" font-size="10.00">CheckPageAvailable</text>
<text text-anchor="start" x="898" y="-82.8" font-family="Courier,monospace" font-style="italic" font-size="10.00">/doCheckPageAvailable();</text>
<text text-anchor="start" x="1043" y="-82.8" font-family="Courier,monospace" font-size="10.00"> </text>
<text text-anchor="start" x="1050" y="-82.8" font-family="Courier,monospace" font-size="14.00"> </text>
</g>
<!-- node8&#45;&gt;node7 -->
<g id="edge10" class="edge">
<title>node8&#45;&gt;node7</title>
<path fill="none" stroke="black" d="M981.51,-46.14C1031.21,-50.92 1085.45,-62.92 1059,-93 1043.81,-110.28 895.95,-121.47 825.27,-125.88"/>
<polygon fill="black" stroke="black" points="824.79,-122.4 815.02,-126.5 825.22,-129.39 824.79,-122.4"/>
</g>
<!-- node9 -->
<g id="node9" class="node">
<title>node9</title>
<ellipse fill="black" stroke="black" cx="1159" cy="-284.8" rx="5.4" ry="5.4"/>
<text text-anchor="start" x="1130.6" y="-293.8" font-family="Times,serif" font-style="italic" font-size="8.00">Initial</text>
</g>
<!-- node10 -->
<g id="node10" class="node">
<title>node10</title>
<path fill="#e0e0e0" stroke="#000000" d="M1167,-220C1167,-220 1137,-220 1137,-220 1131,-220 1125,-214 1125,-208 1125,-208 1125,-196 1125,-196 1125,-190 1131,-184 1137,-184 1137,-184 1167,-184 1167,-184 1173,-184 1179,-190 1179,-196 1179,-196 1179,-208 1179,-208 1179,-214 1173,-220 1167,-220"/>
<text text-anchor="middle" x="1152" y="-198.3" font-family="Arial" font-size="14.00">Miss</text>
</g>
<!-- node9&#45;&gt;node10 -->
<g id="edge11" class="edge">
<title>node9&#45;&gt;node10</title>
<path fill="none" stroke="black" d="M1153.85,-282.89C1144.38,-280.91 1124.38,-275.22 1116,-261.4 1109.26,-250.28 1114.81,-238.03 1123.4,-227.62"/>
<polygon fill="black" stroke="black" points="1126.17,-229.79 1130.41,-220.08 1121.04,-225.03 1126.17,-229.79"/>
<text text-anchor="start" x="1116" y="-251.2" font-family="Courier,monospace" font-size="14.00"> </text>
<text text-anchor="start" x="1125" y="-251.2" font-family="Courier,monospace" font-weight="bold" font-size="10.00">L1CacheMiss</text>
<text text-anchor="start" x="1192" y="-251.2" font-family="Courier,monospace" font-size="14.00"> </text>
</g>
<!-- node10&#45;&gt;node9 -->
<g id="edge12" class="edge">
<title>node10&#45;&gt;node9</title>
<path fill="none" stroke="black" d="M1179.21,-220.16C1187.84,-227.15 1196.34,-236.04 1201,-246.4 1203.74,-252.48 1204.43,-255.68 1201,-261.4 1195.19,-271.08 1183.63,-276.8 1174.1,-280.04"/>
<polygon fill="black" stroke="black" points="1173.01,-276.71 1164.32,-282.79 1174.9,-283.45 1173.01,-276.71"/>
</g>
</g>
</svg>
