<?xml version="1.0" encoding="UTF-8" standalone="no"?>
<!DOCTYPE svg PUBLIC "-//W3C//DTD SVG 1.1//EN"
 "http://www.w3.org/Graphics/SVG/1.1/DTD/svg11.dtd">
<!-- Generated by graphviz version 2.43.0 (0)
 -->
<!-- Title: Root Pages: 1 -->
<svg width="221pt" height="132pt"
 viewBox="0.00 0.00 221.00 131.60" xmlns="http://www.w3.org/2000/svg" xmlns:xlink="http://www.w3.org/1999/xlink">
<g id="graph0" class="graph" transform="scale(1 1) rotate(0) translate(4 127.6)">
<title>Root</title>
<polygon fill="white" stroke="transparent" points="-4,4 -4,-127.6 217,-127.6 217,4 -4,4"/>
<g id="clust1" class="cluster">
<title>cluster0</title>
<path fill="lightgrey" stroke="darkgray" d="M20,-8C20,-8 193,-8 193,-8 199,-8 205,-14 205,-20 205,-20 205,-103.6 205,-103.6 205,-109.6 199,-115.6 193,-115.6 193,-115.6 20,-115.6 20,-115.6 14,-115.6 8,-109.6 8,-103.6 8,-103.6 8,-20 8,-20 8,-14 14,-8 20,-8"/>
<text text-anchor="middle" x="106.5" y="-100.4" font-family="Arial" font-size="14.00">L1Cache</text>
</g>
<g id="clust2" class="cluster">
<title>cluster1</title>
<path fill="lightgrey" stroke="darkgray" d="M28,-16C28,-16 102,-16 102,-16 108,-16 114,-22 114,-28 114,-28 114,-53.8 114,-53.8 114,-59.8 108,-65.8 102,-65.8 102,-65.8 28,-65.8 28,-65.8 22,-65.8 16,-59.8 16,-53.8 16,-53.8 16,-28 16,-28 16,-22 22,-16 28,-16"/>
<text text-anchor="middle" x="65" y="-50.6" font-family="Arial" font-size="14.00">CPUInterface</text>
</g>
<g id="clust3" class="cluster">
<title>cluster2</title>
<path fill="lightgrey" stroke="darkgray" d="M134,-16C134,-16 185,-16 185,-16 191,-16 197,-22 197,-28 197,-28 197,-53.8 197,-53.8 197,-59.8 191,-65.8 185,-65.8 185,-65.8 134,-65.8 134,-65.8 128,-65.8 122,-59.8 122,-53.8 122,-53.8 122,-28 122,-28 122,-22 128,-16 134,-16"/>
<text text-anchor="middle" x="159.5" y="-50.6" font-family="Arial" font-size="14.00">Controller</text>
</g>
<!-- node0 -->
<g id="node0" class="node">
<title>node0</title>
<ellipse fill="black" stroke="black" cx="118" cy="-79.2" rx="5.4" ry="5.4"/>
<text text-anchor="start" x="89.6" y="-88.2" font-family="Times,serif" font-style="italic" font-size="8.00">Initial</text>
</g>
<!-- node1 -->
<g id="node1" class="node">
<title>node1</title>
<ellipse fill="black" stroke="black" cx="101" cy="-29.4" rx="5.4" ry="5.4"/>
<text text-anchor="start" x="72.6" y="-38.4" font-family="Times,serif" font-style="italic" font-size="8.00">Initial</text>
</g>
<!-- node0&#45;&gt;node1 -->
<g id="edge1" class="edge">
<title>node0&#45;&gt;node1</title>
<path fill="none" stroke="black" d="M116.43,-73.79C116.38,-73.66 116.34,-73.52 116.29,-73.38"/>
<polygon fill="black" stroke="black" points="120.24,-74.04 113.59,-65.8 113.64,-76.39 120.24,-74.04"/>
</g>
<!-- node2 -->
<g id="node2" class="node">
<title>node2</title>
<ellipse fill="black" stroke="black" cx="135" cy="-29.4" rx="5.4" ry="5.4"/>
<text text-anchor="start" x="106.6" y="-38.4" font-family="Times,serif" font-style="italic" font-size="8.00">Initial</text>
</g>
<!-- node0&#45;&gt;node2 -->
<g id="edge2" class="edge">
<title>node0&#45;&gt;node2</title>
<path fill="none" stroke="black" d="M119.57,-73.79C119.62,-73.66 119.66,-73.52 119.71,-73.38"/>
<polygon fill="black" stroke="black" points="122.36,-76.39 122.41,-65.8 115.76,-74.04 122.36,-76.39"/>
</g>
</g>
</svg>
